# xmcd CD database file
#
# Track frame offsets:
#	150
#	28514
#	57107
#	85742
#	112756
#	139315
#	165152
#	192554
#	218793
#	244748
#	267517
#
# Disc length: 3694 seconds
#
# Revision: 0
# Processed by: cddbd v1.5.2PL0 Copyright (c) Steve Scherf et al.
# Submitted via: CDex 1.70beta2
#
DISCID=910e6c0b
DTITLE=Marie Séférian Quartett - La Princesse de Ferraille
DYEAR=2012
DGENRE=Jazz
TTITLE0=Altstadt
TTITLE1=Windmills of Your Mind
TTITLE2=Die kleine Filmmusik der Schrottprinzessin
TTITLE3=Moment
TTITLE4=Dans la rue
TTITLE5=Petit Rrince
TTITLE6=Isabelle
TTITLE7=Antoine
TTITLE8=Eiszeit
TTITLE9=La forêt de nuages
TTITLE10=Auf Wiedersehen
EXTD=YEAR: 2012
EXTT0=
EXTT1=
EXTT2=
EXTT3=
EXTT4=
EXTT5=
EXTT6=
EXTT7=
EXTT8=
EXTT9=
EXTT10=
PLAYORDER=
